<svg width="32" height="32" viewBox="0 0 32 32" fill="none" xmlns="http://www.w3.org/2000/svg">
<rect width="32" height="32" rx="5" fill="#121214"/>
<path d="M15.6064 17.1748C15.6064 15.7158 15.9521 14.541 16.6436 13.6504C17.3408 12.7598 18.2783 12.3145 19.4561 12.3145C20.499 12.3145 21.3105 12.6719 21.8906 13.3867L21.9961 12.4902H24.2988V21.6836C24.2988 22.5156 24.1084 23.2393 23.7275 23.8545C23.3525 24.4697 22.8223 24.9385 22.1367 25.2607C21.4512 25.583 20.6484 25.7441 19.7285 25.7441C19.0312 25.7441 18.3516 25.6035 17.6895 25.3223C17.0273 25.0469 16.5264 24.6895 16.1865 24.25L17.3115 22.7031C17.9443 23.4121 18.7119 23.7666 19.6143 23.7666C20.2881 23.7666 20.8125 23.585 21.1875 23.2217C21.5625 22.8643 21.75 22.3545 21.75 21.6924V21.1826C21.1641 21.8447 20.3936 22.1758 19.4385 22.1758C18.2959 22.1758 17.3701 21.7305 16.6611 20.8398C15.958 19.9434 15.6064 18.7568 15.6064 17.2803V17.1748ZM18.1465 17.3594C18.1465 18.2207 18.3193 18.8975 18.665 19.3896C19.0107 19.876 19.4854 20.1191 20.0889 20.1191C20.8623 20.1191 21.416 19.8291 21.75 19.249V15.25C21.4102 14.6699 20.8623 14.3799 20.1064 14.3799C19.4971 14.3799 19.0166 14.6289 18.665 15.127C18.3193 15.625 18.1465 16.3691 18.1465 17.3594ZM26.3906 20.752C26.3906 20.3477 26.5254 20.0195 26.7949 19.7676C27.0703 19.5156 27.4131 19.3896 27.8232 19.3896C28.2393 19.3896 28.582 19.5156 28.8516 19.7676C29.127 20.0195 29.2646 20.3477 29.2646 20.752C29.2646 21.1504 29.1299 21.4756 28.8604 21.7275C28.5908 21.9736 28.2451 22.0967 27.8232 22.0967C27.4072 22.0967 27.0645 21.9736 26.7949 21.7275C26.5254 21.4756 26.3906 21.1504 26.3906 20.752Z" fill="#EBA417"/>
<path d="M13.816 7.55407C13.816 7.09451 13.433 6.71155 12.9853 6.72333L10.2279 6.72333C9.78016 6.71155 9.3972 7.09451 9.3972 7.55407L9.39131 9.71634L13.8101 9.71633L13.816 7.55407ZM9.3972 24.0038L11.6066 26.2132L13.816 24.0038L13.8101 10.9654L9.39131 10.9654L9.3972 24.0038Z" fill="#EBA417"/>
</svg>
